<svg xmlns="http://www.w3.org/2000/svg" viewBox="0 0 720 290" width="720" height="290" font-family="-apple-system,'PingFang TC','Noto Sans CJK TC','Microsoft JhengHei',sans-serif" role="img"><rect width="720" height="290" rx="10" fill="#1d1811"/><text x="360" y="34" font-size="17" fill="#f0c87d" text-anchor="middle" font-weight="600">細胞自動機：整代必須同時更新</text><text x="160" y="84" font-size="13.5" fill="#d98a7b" text-anchor="middle" font-weight="600">錯：邊算邊改</text><rect x="120" y="100" width="20" height="20" rx="2" fill="#d98a7b" stroke="#3a3026" stroke-width="1"/><rect x="140" y="100" width="20" height="20" rx="2" fill="#d98a7b" stroke="#3a3026" stroke-width="1"/><rect x="160" y="100" width="20" height="20" rx="2" fill="none" stroke="#3a3026" stroke-width="1"/><rect x="120" y="120" width="20" height="20" rx="2" fill="none" stroke="#3a3026" stroke-width="1"/><rect x="140" y="120" width="20" height="20" rx="2" fill="#d98a7b" stroke="#3a3026" stroke-width="1"/><rect x="160" y="120" width="20" height="20" rx="2" fill="none" stroke="#3a3026" stroke-width="1"/><rect x="120" y="140" width="20" height="20" rx="2" fill="none" stroke="#3a3026" stroke-width="1"/><rect x="140" y="140" width="20" height="20" rx="2" fill="none" stroke="#3a3026" stroke-width="1"/><rect x="160" y="140" width="20" height="20" rx="2" fill="none" stroke="#3a3026" stroke-width="1"/><text x="160" y="186" font-size="11.5" fill="#a89f92" text-anchor="middle" font-weight="400">先算好的格子會影響後算的</text><text x="160" y="208" font-size="11.5" fill="#a89f92" text-anchor="middle" font-weight="400">結果整代都是錯的</text><text x="530" y="84" font-size="13.5" fill="#6fbfae" text-anchor="middle" font-weight="600">對：算好新陣列再整批換</text><rect x="420" y="100" width="20" height="20" rx="2" fill="#3a3026" stroke="#3a3026" stroke-width="1"/><rect x="440" y="100" width="20" height="20" rx="2" fill="#3a3026" stroke="#3a3026" stroke-width="1"/><rect x="460" y="100" width="20" height="20" rx="2" fill="none" stroke="#3a3026" stroke-width="1"/><rect x="420" y="120" width="20" height="20" rx="2" fill="none" stroke="#3a3026" stroke-width="1"/><rect x="440" y="120" width="20" height="20" rx="2" fill="#3a3026" stroke="#3a3026" stroke-width="1"/><rect x="460" y="120" width="20" height="20" rx="2" fill="none" stroke="#3a3026" stroke-width="1"/><rect x="420" y="140" width="20" height="20" rx="2" fill="none" stroke="#3a3026" stroke-width="1"/><rect x="440" y="140" width="20" height="20" rx="2" fill="none" stroke="#3a3026" stroke-width="1"/><rect x="460" y="140" width="20" height="20" rx="2" fill="none" stroke="#3a3026" stroke-width="1"/><line x1="490" y1="130" x2="520" y2="130" stroke="#e0a94e" stroke-width="2" marker-end="url(#ar)"/><rect x="535" y="100" width="20" height="20" rx="2" fill="none" stroke="#3a3026" stroke-width="1"/><rect x="555" y="100" width="20" height="20" rx="2" fill="#6fbfae" stroke="#3a3026" stroke-width="1"/><rect x="575" y="100" width="20" height="20" rx="2" fill="none" stroke="#3a3026" stroke-width="1"/><rect x="535" y="120" width="20" height="20" rx="2" fill="#6fbfae" stroke="#3a3026" stroke-width="1"/><rect x="555" y="120" width="20" height="20" rx="2" fill="#6fbfae" stroke="#3a3026" stroke-width="1"/><rect x="575" y="120" width="20" height="20" rx="2" fill="none" stroke="#3a3026" stroke-width="1"/><rect x="535" y="140" width="20" height="20" rx="2" fill="none" stroke="#3a3026" stroke-width="1"/><rect x="555" y="140" width="20" height="20" rx="2" fill="none" stroke="#3a3026" stroke-width="1"/><rect x="575" y="140" width="20" height="20" rx="2" fill="none" stroke="#3a3026" stroke-width="1"/><text x="450" y="186" font-size="11.5" fill="#a89f92" text-anchor="middle" font-weight="400">grid（只讀）</text><text x="565" y="186" font-size="11.5" fill="#6fbfae" text-anchor="middle" font-weight="400">next（只寫）</text><text x="530" y="212" font-size="11.5" fill="#f2ece1" text-anchor="middle" font-weight="400" font-family="ui-monospace,'SF Mono',Menlo,Consolas,monospace">全部算完才 grid = next</text><text x="360" y="254" font-size="13" fill="#f2ece1" text-anchor="middle" font-weight="400">所有細胞自動機都有這個陷阱，生命遊戲只是最有名的一個</text><defs><marker id="ar" markerWidth="9" markerHeight="9" refX="8" refY="4.5" orient="auto"><path d="M0,0 L9,4.5 L0,9 Z" fill="#e0a94e"/></marker></defs></svg>