<svg xmlns="http://www.w3.org/2000/svg" viewBox="0 0 720 300" width="720" height="300" font-family="-apple-system,'PingFang TC','Noto Sans CJK TC','Microsoft JhengHei',sans-serif" role="img"><rect width="720" height="300" rx="10" fill="#1d1811"/><text x="360" y="34" font-size="17" fill="#f0c87d" text-anchor="middle" font-weight="600">一條規則，一整個作品的族群</text><rect x="50" y="120" width="150" height="60" rx="9" fill="none" stroke="#e0a94e" stroke-width="2"/><text x="125" y="146" font-size="14" fill="#e0a94e" text-anchor="middle" font-weight="600">一條規則</text><text x="125" y="168" font-size="11" fill="#a89f92" text-anchor="middle" font-weight="400">你寫的</text><rect x="250" y="98" width="46" height="50" rx="4" fill="none" stroke="#3a3026" stroke-width="1.1"/><circle cx="284.857" cy="136.435" r="2.33931" fill="none" stroke="#f0c87d" stroke-width="1.1" opacity="0.75"/><circle cx="262.207" cy="133.065" r="6.41582" fill="none" stroke="#6fbfae" stroke-width="1.1" opacity="0.75"/><circle cx="277.413" cy="117.244" r="5.63566" fill="none" stroke="#d98a7b" stroke-width="1.1" opacity="0.75"/><line x1="205" y1="150" x2="244" y2="123" stroke="#3a3026" stroke-width="0.8" opacity="0.35"/><rect x="307" y="98" width="46" height="50" rx="4" fill="none" stroke="#3a3026" stroke-width="1.1"/><circle cx="332.777" cy="125.436" r="2.9503" fill="none" stroke="#6fbfae" stroke-width="1.1" opacity="0.75"/><circle cx="328.197" cy="119.806" r="6.33807" fill="none" stroke="#d98a7b" stroke-width="1.1" opacity="0.75"/><circle cx="342.865" cy="136.482" r="5.26506" fill="none" stroke="#f0c87d" stroke-width="1.1" opacity="0.75"/><line x1="205" y1="150" x2="244" y2="123" stroke="#3a3026" stroke-width="0.8" opacity="0.35"/><rect x="364" y="98" width="46" height="50" rx="4" fill="none" stroke="#3a3026" stroke-width="1.1"/><circle cx="385.566" cy="116.047" r="2.21555" fill="none" stroke="#d98a7b" stroke-width="1.1" opacity="0.75"/><circle cx="374.714" cy="121.947" r="3.91079" fill="none" stroke="#f0c87d" stroke-width="1.1" opacity="0.75"/><circle cx="383.88" cy="134.754" r="5.15452" fill="none" stroke="#6fbfae" stroke-width="1.1" opacity="0.75"/><line x1="205" y1="150" x2="244" y2="123" stroke="#3a3026" stroke-width="0.8" opacity="0.35"/><rect x="421" y="98" width="46" height="50" rx="4" fill="none" stroke="#3a3026" stroke-width="1.1"/><circle cx="445.573" cy="115.084" r="2.14315" fill="none" stroke="#f0c87d" stroke-width="1.1" opacity="0.75"/><circle cx="439.454" cy="112.101" r="5.06134" fill="none" stroke="#6fbfae" stroke-width="1.1" opacity="0.75"/><circle cx="456.966" cy="128.234" r="3.09106" fill="none" stroke="#d98a7b" stroke-width="1.1" opacity="0.75"/><line x1="205" y1="150" x2="244" y2="123" stroke="#3a3026" stroke-width="0.8" opacity="0.35"/><rect x="478" y="98" width="46" height="50" rx="4" fill="none" stroke="#3a3026" stroke-width="1.1"/><circle cx="511.233" cy="131.903" r="6.40641" fill="none" stroke="#6fbfae" stroke-width="1.1" opacity="0.75"/><circle cx="511.571" cy="130.887" r="6.73849" fill="none" stroke="#d98a7b" stroke-width="1.1" opacity="0.75"/><circle cx="497.198" cy="137.429" r="7.77141" fill="none" stroke="#f0c87d" stroke-width="1.1" opacity="0.75"/><line x1="205" y1="150" x2="244" y2="123" stroke="#3a3026" stroke-width="0.8" opacity="0.35"/><rect x="535" y="98" width="46" height="50" rx="4" fill="none" stroke="#3a3026" stroke-width="1.1"/><circle cx="549.191" cy="130.62" r="6.29091" fill="none" stroke="#d98a7b" stroke-width="1.1" opacity="0.75"/><circle cx="556.997" cy="123.911" r="4.94008" fill="none" stroke="#f0c87d" stroke-width="1.1" opacity="0.75"/><circle cx="569.046" cy="123.025" r="6.98915" fill="none" stroke="#6fbfae" stroke-width="1.1" opacity="0.75"/><line x1="205" y1="150" x2="244" y2="123" stroke="#3a3026" stroke-width="0.8" opacity="0.35"/><rect x="592" y="98" width="46" height="50" rx="4" fill="none" stroke="#3a3026" stroke-width="1.1"/><circle cx="611.202" cy="134.486" r="7.3982" fill="none" stroke="#f0c87d" stroke-width="1.1" opacity="0.75"/><circle cx="613.986" cy="125.031" r="7.52198" fill="none" stroke="#6fbfae" stroke-width="1.1" opacity="0.75"/><circle cx="620.818" cy="122.598" r="3.33087" fill="none" stroke="#d98a7b" stroke-width="1.1" opacity="0.75"/><line x1="205" y1="150" x2="244" y2="123" stroke="#3a3026" stroke-width="0.8" opacity="0.35"/><rect x="649" y="98" width="46" height="50" rx="4" fill="none" stroke="#3a3026" stroke-width="1.1"/><circle cx="667.441" cy="128.987" r="2.99642" fill="none" stroke="#6fbfae" stroke-width="1.1" opacity="0.75"/><circle cx="682.606" cy="116.044" r="7.46827" fill="none" stroke="#d98a7b" stroke-width="1.1" opacity="0.75"/><circle cx="667.049" cy="136.721" r="6.23723" fill="none" stroke="#f0c87d" stroke-width="1.1" opacity="0.75"/><line x1="205" y1="150" x2="244" y2="123" stroke="#3a3026" stroke-width="0.8" opacity="0.35"/><rect x="250" y="160" width="46" height="50" rx="4" fill="none" stroke="#3a3026" stroke-width="1.1"/><circle cx="273.11" cy="185.532" r="5.90849" fill="none" stroke="#d98a7b" stroke-width="1.1" opacity="0.75"/><circle cx="275.287" cy="179.355" r="3.24691" fill="none" stroke="#f0c87d" stroke-width="1.1" opacity="0.75"/><circle cx="273.309" cy="198.025" r="5.73959" fill="none" stroke="#6fbfae" stroke-width="1.1" opacity="0.75"/><line x1="205" y1="150" x2="244" y2="185" stroke="#3a3026" stroke-width="0.8" opacity="0.35"/><rect x="307" y="160" width="46" height="50" rx="4" fill="none" stroke="#3a3026" stroke-width="1.1"/><circle cx="318.96" cy="194.612" r="6.3557" fill="none" stroke="#f0c87d" stroke-width="1.1" opacity="0.75"/><circle cx="340.599" cy="175.742" r="6.4687" fill="none" stroke="#6fbfae" stroke-width="1.1" opacity="0.75"/><circle cx="318.528" cy="189.587" r="3.6386" fill="none" stroke="#d98a7b" stroke-width="1.1" opacity="0.75"/><line x1="205" y1="150" x2="244" y2="185" stroke="#3a3026" stroke-width="0.8" opacity="0.35"/><rect x="364" y="160" width="46" height="50" rx="4" fill="none" stroke="#3a3026" stroke-width="1.1"/><circle cx="379.892" cy="196.265" r="2.6376" fill="none" stroke="#6fbfae" stroke-width="1.1" opacity="0.75"/><circle cx="387.581" cy="195.618" r="3.46899" fill="none" stroke="#d98a7b" stroke-width="1.1" opacity="0.75"/><circle cx="379.472" cy="196.417" r="4.53751" fill="none" stroke="#f0c87d" stroke-width="1.1" opacity="0.75"/><line x1="205" y1="150" x2="244" y2="185" stroke="#3a3026" stroke-width="0.8" opacity="0.35"/><rect x="421" y="160" width="46" height="50" rx="4" fill="none" stroke="#3a3026" stroke-width="1.1"/><circle cx="449.641" cy="170.956" r="4.17414" fill="none" stroke="#d98a7b" stroke-width="1.1" opacity="0.75"/><circle cx="435.469" cy="190.183" r="2.49742" fill="none" stroke="#f0c87d" stroke-width="1.1" opacity="0.75"/><circle cx="455.819" cy="170.76" r="6.37654" fill="none" stroke="#6fbfae" stroke-width="1.1" opacity="0.75"/><line x1="205" y1="150" x2="244" y2="185" stroke="#3a3026" stroke-width="0.8" opacity="0.35"/><rect x="478" y="160" width="46" height="50" rx="4" fill="none" stroke="#3a3026" stroke-width="1.1"/><circle cx="488.55" cy="177.671" r="6.88013" fill="none" stroke="#f0c87d" stroke-width="1.1" opacity="0.75"/><circle cx="492.085" cy="175.512" r="6.14897" fill="none" stroke="#6fbfae" stroke-width="1.1" opacity="0.75"/><circle cx="498.025" cy="171.295" r="7.94001" fill="none" stroke="#d98a7b" stroke-width="1.1" opacity="0.75"/><line x1="205" y1="150" x2="244" y2="185" stroke="#3a3026" stroke-width="0.8" opacity="0.35"/><rect x="535" y="160" width="46" height="50" rx="4" fill="none" stroke="#3a3026" stroke-width="1.1"/><circle cx="548.937" cy="171.088" r="4.06521" fill="none" stroke="#6fbfae" stroke-width="1.1" opacity="0.75"/><circle cx="560.996" cy="192.274" r="2.67869" fill="none" stroke="#d98a7b" stroke-width="1.1" opacity="0.75"/><circle cx="553.768" cy="170.924" r="4.69192" fill="none" stroke="#f0c87d" stroke-width="1.1" opacity="0.75"/><line x1="205" y1="150" x2="244" y2="185" stroke="#3a3026" stroke-width="0.8" opacity="0.35"/><rect x="592" y="160" width="46" height="50" rx="4" fill="none" stroke="#3a3026" stroke-width="1.1"/><circle cx="621.915" cy="192.198" r="7.41212" fill="none" stroke="#d98a7b" stroke-width="1.1" opacity="0.75"/><circle cx="621.647" cy="195.873" r="6.23207" fill="none" stroke="#f0c87d" stroke-width="1.1" opacity="0.75"/><circle cx="614.292" cy="176.766" r="5.96497" fill="none" stroke="#6fbfae" stroke-width="1.1" opacity="0.75"/><line x1="205" y1="150" x2="244" y2="185" stroke="#3a3026" stroke-width="0.8" opacity="0.35"/><rect x="649" y="160" width="46" height="50" rx="4" fill="none" stroke="#3a3026" stroke-width="1.1"/><circle cx="667.224" cy="173.061" r="4.68693" fill="none" stroke="#f0c87d" stroke-width="1.1" opacity="0.75"/><circle cx="681.744" cy="173.826" r="5.50973" fill="none" stroke="#6fbfae" stroke-width="1.1" opacity="0.75"/><circle cx="669.217" cy="185.444" r="2.86298" fill="none" stroke="#d98a7b" stroke-width="1.1" opacity="0.75"/><line x1="205" y1="150" x2="244" y2="185" stroke="#3a3026" stroke-width="0.8" opacity="0.35"/><rect x="250" y="222" width="46" height="50" rx="4" fill="none" stroke="#3a3026" stroke-width="1.1"/><circle cx="284.953" cy="239.773" r="5.63647" fill="none" stroke="#6fbfae" stroke-width="1.1" opacity="0.75"/><circle cx="270.914" cy="232.541" r="5.3477" fill="none" stroke="#d98a7b" stroke-width="1.1" opacity="0.75"/><circle cx="263.655" cy="233.703" r="2.20134" fill="none" stroke="#f0c87d" stroke-width="1.1" opacity="0.75"/><line x1="205" y1="150" x2="244" y2="247" stroke="#3a3026" stroke-width="0.8" opacity="0.35"/><rect x="307" y="222" width="46" height="50" rx="4" fill="none" stroke="#3a3026" stroke-width="1.1"/><circle cx="321.19" cy="234.876" r="5.81045" fill="none" stroke="#d98a7b" stroke-width="1.1" opacity="0.75"/><circle cx="330.215" cy="261.504" r="7.60478" fill="none" stroke="#f0c87d" stroke-width="1.1" opacity="0.75"/><circle cx="342.858" cy="238.974" r="4.66818" fill="none" stroke="#6fbfae" stroke-width="1.1" opacity="0.75"/><line x1="205" y1="150" x2="244" y2="247" stroke="#3a3026" stroke-width="0.8" opacity="0.35"/><rect x="364" y="222" width="46" height="50" rx="4" fill="none" stroke="#3a3026" stroke-width="1.1"/><circle cx="380.52" cy="249.737" r="5.74498" fill="none" stroke="#f0c87d" stroke-width="1.1" opacity="0.75"/><circle cx="394.805" cy="253.285" r="3.53966" fill="none" stroke="#6fbfae" stroke-width="1.1" opacity="0.75"/><circle cx="384.998" cy="247.786" r="2.02895" fill="none" stroke="#d98a7b" stroke-width="1.1" opacity="0.75"/><line x1="205" y1="150" x2="244" y2="247" stroke="#3a3026" stroke-width="0.8" opacity="0.35"/><rect x="421" y="222" width="46" height="50" rx="4" fill="none" stroke="#3a3026" stroke-width="1.1"/><circle cx="431.923" cy="244.262" r="2.66705" fill="none" stroke="#6fbfae" stroke-width="1.1" opacity="0.75"/><circle cx="449.818" cy="239.226" r="2.59864" fill="none" stroke="#d98a7b" stroke-width="1.1" opacity="0.75"/><circle cx="435.726" cy="238.946" r="3.30412" fill="none" stroke="#f0c87d" stroke-width="1.1" opacity="0.75"/><line x1="205" y1="150" x2="244" y2="247" stroke="#3a3026" stroke-width="0.8" opacity="0.35"/><rect x="478" y="222" width="46" height="50" rx="4" fill="none" stroke="#3a3026" stroke-width="1.1"/><circle cx="501.539" cy="245.932" r="3.85836" fill="none" stroke="#d98a7b" stroke-width="1.1" opacity="0.75"/><circle cx="504.686" cy="238.373" r="7.43938" fill="none" stroke="#f0c87d" stroke-width="1.1" opacity="0.75"/><circle cx="513.041" cy="253.868" r="4.6024" fill="none" stroke="#6fbfae" stroke-width="1.1" opacity="0.75"/><line x1="205" y1="150" x2="244" y2="247" stroke="#3a3026" stroke-width="0.8" opacity="0.35"/><rect x="535" y="222" width="46" height="50" rx="4" fill="none" stroke="#3a3026" stroke-width="1.1"/><circle cx="558.299" cy="249.432" r="2.30741" fill="none" stroke="#f0c87d" stroke-width="1.1" opacity="0.75"/><circle cx="555.868" cy="247.752" r="3.08735" fill="none" stroke="#6fbfae" stroke-width="1.1" opacity="0.75"/><circle cx="547.438" cy="256.08" r="4.1971" fill="none" stroke="#d98a7b" stroke-width="1.1" opacity="0.75"/><line x1="205" y1="150" x2="244" y2="247" stroke="#3a3026" stroke-width="0.8" opacity="0.35"/><rect x="592" y="222" width="46" height="50" rx="4" fill="none" stroke="#3a3026" stroke-width="1.1"/><circle cx="615.499" cy="259.644" r="5.66306" fill="none" stroke="#6fbfae" stroke-width="1.1" opacity="0.75"/><circle cx="609.529" cy="261.506" r="4.23336" fill="none" stroke="#d98a7b" stroke-width="1.1" opacity="0.75"/><circle cx="602.495" cy="252.559" r="2.60697" fill="none" stroke="#f0c87d" stroke-width="1.1" opacity="0.75"/><line x1="205" y1="150" x2="244" y2="247" stroke="#3a3026" stroke-width="0.8" opacity="0.35"/><rect x="649" y="222" width="46" height="50" rx="4" fill="none" stroke="#3a3026" stroke-width="1.1"/><circle cx="666.954" cy="257.218" r="6.03543" fill="none" stroke="#d98a7b" stroke-width="1.1" opacity="0.75"/><circle cx="659.409" cy="245.543" r="4.46405" fill="none" stroke="#f0c87d" stroke-width="1.1" opacity="0.75"/><circle cx="671.632" cy="238.247" r="5.53247" fill="none" stroke="#6fbfae" stroke-width="1.1" opacity="0.75"/><line x1="205" y1="150" x2="244" y2="247" stroke="#3a3026" stroke-width="0.8" opacity="0.35"/><text x="360" y="290" font-size="13" fill="#f2ece1" text-anchor="middle" font-weight="400">你要判斷的不是「這張好不好看」，是「這一千張好不好看」</text><defs><marker id="ar" markerWidth="9" markerHeight="9" refX="8" refY="4.5" orient="auto"><path d="M0,0 L9,4.5 L0,9 Z" fill="#e0a94e"/></marker></defs></svg>