<svg xmlns="http://www.w3.org/2000/svg" viewBox="0 0 720 300" width="720" height="300" font-family="-apple-system,'PingFang TC','Noto Sans CJK TC','Microsoft JhengHei',sans-serif" role="img"><rect width="720" height="300" rx="10" fill="#1d1811"/><text x="360" y="34" font-size="17" fill="#f0c87d" text-anchor="middle" font-weight="600">L-system：用規則長出一棵樹</text><line x1="150" y1="255" x2="150" y2="211" stroke="#d98a7b" stroke-width="1.6500000000000001"/><line x1="150" y1="211" x2="137.082" y2="182.073" stroke="#d98a7b" stroke-width="1.1"/><line x1="137.082" y1="182.073" x2="120.097" y2="166.849" stroke="#d98a7b" stroke-width="0.7"/><line x1="137.082" y1="182.073" x2="136.17" y2="159.282" stroke="#d98a7b" stroke-width="0.7"/><line x1="150" y1="211" x2="161.751" y2="181.58" stroke="#d98a7b" stroke-width="1.1"/><line x1="161.751" y1="181.58" x2="160.839" y2="158.789" stroke="#d98a7b" stroke-width="0.7"/><line x1="161.751" y1="181.58" x2="177.465" y2="165.047" stroke="#d98a7b" stroke-width="0.7"/><text x="150" y="282" font-size="12" fill="#d98a7b" text-anchor="middle" font-weight="600">3 層</text><line x1="360" y1="255" x2="360" y2="211" stroke="#e0a94e" stroke-width="2.75"/><line x1="360" y1="211" x2="347.082" y2="182.073" stroke="#e0a94e" stroke-width="2.2"/><line x1="347.082" y1="182.073" x2="330.097" y2="166.849" stroke="#e0a94e" stroke-width="1.6500000000000001"/><line x1="330.097" y1="166.849" x2="314.461" y2="161.826" stroke="#e0a94e" stroke-width="1.1"/><line x1="314.461" y1="161.826" x2="302.707" y2="163.115" stroke="#e0a94e" stroke-width="0.7"/><line x1="314.461" y1="161.826" x2="305.347" y2="154.292" stroke="#e0a94e" stroke-width="0.7"/><line x1="330.097" y1="166.849" x2="322.806" y2="152.133" stroke="#e0a94e" stroke-width="1.1"/><line x1="322.806" y1="152.133" x2="313.693" y2="144.599" stroke="#e0a94e" stroke-width="0.7"/><line x1="322.806" y1="152.133" x2="321.861" y2="140.346" stroke="#e0a94e" stroke-width="0.7"/><line x1="347.082" y1="182.073" x2="346.17" y2="159.282" stroke="#e0a94e" stroke-width="1.6500000000000001"/><line x1="346.17" y1="159.282" x2="338.879" y2="144.566" stroke="#e0a94e" stroke-width="1.1"/><line x1="338.879" y1="144.566" x2="329.765" y2="137.032" stroke="#e0a94e" stroke-width="0.7"/><line x1="338.879" y1="144.566" x2="337.934" y2="132.78" stroke="#e0a94e" stroke-width="0.7"/><line x1="346.17" y1="159.282" x2="351.647" y2="143.799" stroke="#e0a94e" stroke-width="1.1"/><line x1="351.647" y1="143.799" x2="350.702" y2="132.013" stroke="#e0a94e" stroke-width="0.7"/><line x1="351.647" y1="143.799" x2="359.444" y2="134.909" stroke="#e0a94e" stroke-width="0.7"/><line x1="360" y1="211" x2="371.751" y2="181.58" stroke="#e0a94e" stroke-width="2.2"/><line x1="371.751" y1="181.58" x2="370.839" y2="158.789" stroke="#e0a94e" stroke-width="1.6500000000000001"/><line x1="370.839" y1="158.789" x2="363.548" y2="144.073" stroke="#e0a94e" stroke-width="1.1"/><line x1="363.548" y1="144.073" x2="354.434" y2="136.539" stroke="#e0a94e" stroke-width="0.7"/><line x1="363.548" y1="144.073" x2="362.603" y2="132.286" stroke="#e0a94e" stroke-width="0.7"/><line x1="370.839" y1="158.789" x2="376.315" y2="143.306" stroke="#e0a94e" stroke-width="1.1"/><line x1="376.315" y1="143.306" x2="375.37" y2="131.519" stroke="#e0a94e" stroke-width="0.7"/><line x1="376.315" y1="143.306" x2="384.112" y2="134.416" stroke="#e0a94e" stroke-width="0.7"/><line x1="371.751" y1="181.58" x2="387.465" y2="165.047" stroke="#e0a94e" stroke-width="1.6500000000000001"/><line x1="387.465" y1="165.047" x2="392.942" y2="149.564" stroke="#e0a94e" stroke-width="1.1"/><line x1="392.942" y1="149.564" x2="391.997" y2="137.777" stroke="#e0a94e" stroke-width="0.7"/><line x1="392.942" y1="149.564" x2="400.739" y2="140.674" stroke="#e0a94e" stroke-width="0.7"/><line x1="387.465" y1="165.047" x2="402.387" y2="158.189" stroke="#e0a94e" stroke-width="1.1"/><line x1="402.387" y1="158.189" x2="410.184" y2="149.299" stroke="#e0a94e" stroke-width="0.7"/><line x1="402.387" y1="158.189" x2="414.196" y2="157.588" stroke="#e0a94e" stroke-width="0.7"/><text x="360" y="282" font-size="12" fill="#e0a94e" text-anchor="middle" font-weight="600">5 層</text><line x1="570" y1="255" x2="570" y2="211" stroke="#6fbfae" stroke-width="4.4"/><line x1="570" y1="211" x2="557.082" y2="182.073" stroke="#6fbfae" stroke-width="3.8500000000000005"/><line x1="557.082" y1="182.073" x2="540.097" y2="166.849" stroke="#6fbfae" stroke-width="3.3000000000000003"/><line x1="540.097" y1="166.849" x2="524.461" y2="161.826" stroke="#6fbfae" stroke-width="2.75"/><line x1="524.461" y1="161.826" x2="512.707" y2="163.115" stroke="#6fbfae" stroke-width="2.2"/><line x1="512.707" y1="163.115" x2="505.358" y2="167.413" stroke="#6fbfae" stroke-width="1.6500000000000001"/><line x1="505.358" y1="167.413" x2="501.788" y2="172.396" stroke="#6fbfae" stroke-width="1.1"/><line x1="501.788" y1="172.396" x2="500.905" y2="176.721" stroke="#6fbfae" stroke-width="0.7"/><line x1="501.788" y1="172.396" x2="498.071" y2="174.775" stroke="#6fbfae" stroke-width="0.7"/><line x1="505.358" y1="167.413" x2="499.296" y2="168.324" stroke="#6fbfae" stroke-width="1.1"/><line x1="499.296" y1="168.324" x2="495.579" y2="170.703" stroke="#6fbfae" stroke-width="0.7"/><line x1="499.296" y1="168.324" x2="495" y2="167.315" stroke="#6fbfae" stroke-width="0.7"/><line x1="512.707" y1="163.115" x2="504.504" y2="160.838" stroke="#6fbfae" stroke-width="1.6500000000000001"/><line x1="504.504" y1="160.838" x2="498.442" y2="161.749" stroke="#6fbfae" stroke-width="1.1"/><line x1="498.442" y1="161.749" x2="494.724" y2="164.128" stroke="#6fbfae" stroke-width="0.7"/><line x1="498.442" y1="161.749" x2="494.145" y2="160.739" stroke="#6fbfae" stroke-width="0.7"/><line x1="504.504" y1="160.838" x2="499.627" y2="157.124" stroke="#6fbfae" stroke-width="1.1"/><line x1="499.627" y1="157.124" x2="495.33" y2="156.115" stroke="#6fbfae" stroke-width="0.7"/><line x1="499.627" y1="157.124" x2="497.358" y2="153.339" stroke="#6fbfae" stroke-width="0.7"/><line x1="524.461" y1="161.826" x2="515.347" y2="154.292" stroke="#6fbfae" stroke-width="2.2"/><line x1="515.347" y1="154.292" x2="507.144" y2="152.015" stroke="#6fbfae" stroke-width="1.6500000000000001"/><line x1="507.144" y1="152.015" x2="501.082" y2="152.926" stroke="#6fbfae" stroke-width="1.1"/><line x1="501.082" y1="152.926" x2="497.365" y2="155.305" stroke="#6fbfae" stroke-width="0.7"/><line x1="501.082" y1="152.926" x2="496.786" y2="151.917" stroke="#6fbfae" stroke-width="0.7"/><line x1="507.144" y1="152.015" x2="502.267" y2="148.301" stroke="#6fbfae" stroke-width="1.1"/><line x1="502.267" y1="148.301" x2="497.971" y2="147.292" stroke="#6fbfae" stroke-width="0.7"/><line x1="502.267" y1="148.301" x2="499.998" y2="144.516" stroke="#6fbfae" stroke-width="0.7"/><line x1="515.347" y1="154.292" x2="511.266" y2="146.821" stroke="#6fbfae" stroke-width="1.6500000000000001"/><line x1="511.266" y1="146.821" x2="506.389" y2="143.107" stroke="#6fbfae" stroke-width="1.1"/><line x1="506.389" y1="143.107" x2="502.092" y2="142.098" stroke="#6fbfae" stroke-width="0.7"/><line x1="506.389" y1="143.107" x2="504.12" y2="139.322" stroke="#6fbfae" stroke-width="0.7"/><line x1="511.266" y1="146.821" x2="510.532" y2="140.735" stroke="#6fbfae" stroke-width="1.1"/><line x1="510.532" y1="140.735" x2="508.263" y2="136.95" stroke="#6fbfae" stroke-width="0.7"/><line x1="510.532" y1="140.735" x2="511.667" y2="136.47" stroke="#6fbfae" stroke-width="0.7"/><line x1="540.097" y1="166.849" x2="532.806" y2="152.133" stroke="#6fbfae" stroke-width="2.75"/><line x1="532.806" y1="152.133" x2="523.693" y2="144.599" stroke="#6fbfae" stroke-width="2.2"/><line x1="523.693" y1="144.599" x2="515.489" y2="142.322" stroke="#6fbfae" stroke-width="1.6500000000000001"/><line x1="515.489" y1="142.322" x2="509.428" y2="143.233" stroke="#6fbfae" stroke-width="1.1"/><line x1="509.428" y1="143.233" x2="505.71" y2="145.612" stroke="#6fbfae" stroke-width="0.7"/><line x1="509.428" y1="143.233" x2="505.131" y2="142.223" stroke="#6fbfae" stroke-width="0.7"/><line x1="515.489" y1="142.322" x2="510.612" y2="138.608" stroke="#6fbfae" stroke-width="1.1"/><line x1="510.612" y1="138.608" x2="506.316" y2="137.598" stroke="#6fbfae" stroke-width="0.7"/><line x1="510.612" y1="138.608" x2="508.343" y2="134.823" stroke="#6fbfae" stroke-width="0.7"/><line x1="523.693" y1="144.599" x2="519.611" y2="137.128" stroke="#6fbfae" stroke-width="1.6500000000000001"/><line x1="519.611" y1="137.128" x2="514.734" y2="133.414" stroke="#6fbfae" stroke-width="1.1"/><line x1="514.734" y1="133.414" x2="510.438" y2="132.404" stroke="#6fbfae" stroke-width="0.7"/><line x1="514.734" y1="133.414" x2="512.465" y2="129.629" stroke="#6fbfae" stroke-width="0.7"/><line x1="519.611" y1="137.128" x2="518.877" y2="131.042" stroke="#6fbfae" stroke-width="1.1"/><line x1="518.877" y1="131.042" x2="516.608" y2="127.256" stroke="#6fbfae" stroke-width="0.7"/><line x1="518.877" y1="131.042" x2="520.012" y2="126.777" stroke="#6fbfae" stroke-width="0.7"/><line x1="532.806" y1="152.133" x2="531.861" y2="140.346" stroke="#6fbfae" stroke-width="2.2"/><line x1="531.861" y1="140.346" x2="527.78" y2="132.875" stroke="#6fbfae" stroke-width="1.6500000000000001"/><line x1="527.78" y1="132.875" x2="522.903" y2="129.161" stroke="#6fbfae" stroke-width="1.1"/><line x1="522.903" y1="129.161" x2="518.606" y2="128.152" stroke="#6fbfae" stroke-width="0.7"/><line x1="522.903" y1="129.161" x2="520.634" y2="125.376" stroke="#6fbfae" stroke-width="0.7"/><line x1="527.78" y1="132.875" x2="527.046" y2="126.789" stroke="#6fbfae" stroke-width="1.1"/><line x1="527.046" y1="126.789" x2="524.777" y2="123.004" stroke="#6fbfae" stroke-width="0.7"/><line x1="527.046" y1="126.789" x2="528.18" y2="122.524" stroke="#6fbfae" stroke-width="0.7"/><line x1="531.861" y1="140.346" x2="534.377" y2="132.213" stroke="#6fbfae" stroke-width="1.6500000000000001"/><line x1="534.377" y1="132.213" x2="533.643" y2="126.127" stroke="#6fbfae" stroke-width="1.1"/><line x1="533.643" y1="126.127" x2="531.374" y2="122.342" stroke="#6fbfae" stroke-width="0.7"/><line x1="533.643" y1="126.127" x2="534.778" y2="121.862" stroke="#6fbfae" stroke-width="0.7"/><line x1="534.377" y1="132.213" x2="538.232" y2="127.447" stroke="#6fbfae" stroke-width="1.1"/><line x1="538.232" y1="127.447" x2="539.366" y2="123.181" stroke="#6fbfae" stroke-width="0.7"/><line x1="538.232" y1="127.447" x2="542.082" y2="125.289" stroke="#6fbfae" stroke-width="0.7"/><line x1="557.082" y1="182.073" x2="556.17" y2="159.282" stroke="#6fbfae" stroke-width="3.3000000000000003"/><line x1="556.17" y1="159.282" x2="548.879" y2="144.566" stroke="#6fbfae" stroke-width="2.75"/><line x1="548.879" y1="144.566" x2="539.765" y2="137.032" stroke="#6fbfae" stroke-width="2.2"/><line x1="539.765" y1="137.032" x2="531.562" y2="134.755" stroke="#6fbfae" stroke-width="1.6500000000000001"/><line x1="531.562" y1="134.755" x2="525.5" y2="135.666" stroke="#6fbfae" stroke-width="1.1"/><line x1="525.5" y1="135.666" x2="521.783" y2="138.045" stroke="#6fbfae" stroke-width="0.7"/><line x1="525.5" y1="135.666" x2="521.204" y2="134.656" stroke="#6fbfae" stroke-width="0.7"/><line x1="531.562" y1="134.755" x2="526.685" y2="131.041" stroke="#6fbfae" stroke-width="1.1"/><line x1="526.685" y1="131.041" x2="522.389" y2="130.032" stroke="#6fbfae" stroke-width="0.7"/><line x1="526.685" y1="131.041" x2="524.416" y2="127.256" stroke="#6fbfae" stroke-width="0.7"/><line x1="539.765" y1="137.032" x2="535.684" y2="129.561" stroke="#6fbfae" stroke-width="1.6500000000000001"/><line x1="535.684" y1="129.561" x2="530.807" y2="125.847" stroke="#6fbfae" stroke-width="1.1"/><line x1="530.807" y1="125.847" x2="526.51" y2="124.838" stroke="#6fbfae" stroke-width="0.7"/><line x1="530.807" y1="125.847" x2="528.538" y2="122.062" stroke="#6fbfae" stroke-width="0.7"/><line x1="535.684" y1="129.561" x2="534.95" y2="123.475" stroke="#6fbfae" stroke-width="1.1"/><line x1="534.95" y1="123.475" x2="532.681" y2="119.69" stroke="#6fbfae" stroke-width="0.7"/><line x1="534.95" y1="123.475" x2="536.085" y2="119.21" stroke="#6fbfae" stroke-width="0.7"/><line x1="548.879" y1="144.566" x2="547.934" y2="132.78" stroke="#6fbfae" stroke-width="2.2"/><line x1="547.934" y1="132.78" x2="543.852" y2="125.308" stroke="#6fbfae" stroke-width="1.6500000000000001"/><line x1="543.852" y1="125.308" x2="538.976" y2="121.595" stroke="#6fbfae" stroke-width="1.1"/><line x1="538.976" y1="121.595" x2="534.679" y2="120.585" stroke="#6fbfae" stroke-width="0.7"/><line x1="538.976" y1="121.595" x2="536.706" y2="117.809" stroke="#6fbfae" stroke-width="0.7"/><line x1="543.852" y1="125.308" x2="543.119" y2="119.222" stroke="#6fbfae" stroke-width="1.1"/><line x1="543.119" y1="119.222" x2="540.85" y2="115.437" stroke="#6fbfae" stroke-width="0.7"/><line x1="543.119" y1="119.222" x2="544.253" y2="114.957" stroke="#6fbfae" stroke-width="0.7"/><line x1="547.934" y1="132.78" x2="550.45" y2="124.646" stroke="#6fbfae" stroke-width="1.6500000000000001"/><line x1="550.45" y1="124.646" x2="549.716" y2="118.56" stroke="#6fbfae" stroke-width="1.1"/><line x1="549.716" y1="118.56" x2="547.447" y2="114.775" stroke="#6fbfae" stroke-width="0.7"/><line x1="549.716" y1="118.56" x2="550.851" y2="114.295" stroke="#6fbfae" stroke-width="0.7"/><line x1="550.45" y1="124.646" x2="554.304" y2="119.88" stroke="#6fbfae" stroke-width="1.1"/><line x1="554.304" y1="119.88" x2="555.439" y2="115.615" stroke="#6fbfae" stroke-width="0.7"/><line x1="554.304" y1="119.88" x2="558.155" y2="117.722" stroke="#6fbfae" stroke-width="0.7"/><line x1="556.17" y1="159.282" x2="561.647" y2="143.799" stroke="#6fbfae" stroke-width="2.75"/><line x1="561.647" y1="143.799" x2="560.702" y2="132.013" stroke="#6fbfae" stroke-width="2.2"/><line x1="560.702" y1="132.013" x2="556.62" y2="124.541" stroke="#6fbfae" stroke-width="1.6500000000000001"/><line x1="556.62" y1="124.541" x2="551.743" y2="120.828" stroke="#6fbfae" stroke-width="1.1"/><line x1="551.743" y1="120.828" x2="547.447" y2="119.818" stroke="#6fbfae" stroke-width="0.7"/><line x1="551.743" y1="120.828" x2="549.474" y2="117.042" stroke="#6fbfae" stroke-width="0.7"/><line x1="556.62" y1="124.541" x2="555.886" y2="118.455" stroke="#6fbfae" stroke-width="1.1"/><line x1="555.886" y1="118.455" x2="553.617" y2="114.67" stroke="#6fbfae" stroke-width="0.7"/><line x1="555.886" y1="118.455" x2="557.021" y2="114.19" stroke="#6fbfae" stroke-width="0.7"/><line x1="560.702" y1="132.013" x2="563.218" y2="123.879" stroke="#6fbfae" stroke-width="1.6500000000000001"/><line x1="563.218" y1="123.879" x2="562.484" y2="117.793" stroke="#6fbfae" stroke-width="1.1"/><line x1="562.484" y1="117.793" x2="560.215" y2="114.008" stroke="#6fbfae" stroke-width="0.7"/><line x1="562.484" y1="117.793" x2="563.619" y2="113.528" stroke="#6fbfae" stroke-width="0.7"/><line x1="563.218" y1="123.879" x2="567.072" y2="119.113" stroke="#6fbfae" stroke-width="1.1"/><line x1="567.072" y1="119.113" x2="568.207" y2="114.848" stroke="#6fbfae" stroke-width="0.7"/><line x1="567.072" y1="119.113" x2="570.922" y2="116.955" stroke="#6fbfae" stroke-width="0.7"/><line x1="561.647" y1="143.799" x2="569.444" y2="134.909" stroke="#6fbfae" stroke-width="2.2"/><line x1="569.444" y1="134.909" x2="571.96" y2="126.776" stroke="#6fbfae" stroke-width="1.6500000000000001"/><line x1="571.96" y1="126.776" x2="571.226" y2="120.69" stroke="#6fbfae" stroke-width="1.1"/><line x1="571.226" y1="120.69" x2="568.957" y2="116.905" stroke="#6fbfae" stroke-width="0.7"/><line x1="571.226" y1="120.69" x2="572.36" y2="116.425" stroke="#6fbfae" stroke-width="0.7"/><line x1="571.96" y1="126.776" x2="575.814" y2="122.01" stroke="#6fbfae" stroke-width="1.1"/><line x1="575.814" y1="122.01" x2="576.949" y2="117.745" stroke="#6fbfae" stroke-width="0.7"/><line x1="575.814" y1="122.01" x2="579.664" y2="119.852" stroke="#6fbfae" stroke-width="0.7"/><line x1="569.444" y1="134.909" x2="577.031" y2="131.048" stroke="#6fbfae" stroke-width="1.6500000000000001"/><line x1="577.031" y1="131.048" x2="580.886" y2="126.281" stroke="#6fbfae" stroke-width="1.1"/><line x1="580.886" y1="126.281" x2="582.02" y2="122.016" stroke="#6fbfae" stroke-width="0.7"/><line x1="580.886" y1="126.281" x2="584.736" y2="124.124" stroke="#6fbfae" stroke-width="0.7"/><line x1="577.031" y1="131.048" x2="583.136" y2="130.492" stroke="#6fbfae" stroke-width="1.1"/><line x1="583.136" y1="130.492" x2="586.986" y2="128.334" stroke="#6fbfae" stroke-width="0.7"/><line x1="583.136" y1="130.492" x2="587.366" y2="131.751" stroke="#6fbfae" stroke-width="0.7"/><line x1="570" y1="211" x2="581.751" y2="181.58" stroke="#6fbfae" stroke-width="3.8500000000000005"/><line x1="581.751" y1="181.58" x2="580.839" y2="158.789" stroke="#6fbfae" stroke-width="3.3000000000000003"/><line x1="580.839" y1="158.789" x2="573.548" y2="144.073" stroke="#6fbfae" stroke-width="2.75"/><line x1="573.548" y1="144.073" x2="564.434" y2="136.539" stroke="#6fbfae" stroke-width="2.2"/><line x1="564.434" y1="136.539" x2="556.231" y2="134.261" stroke="#6fbfae" stroke-width="1.6500000000000001"/><line x1="556.231" y1="134.261" x2="550.169" y2="135.173" stroke="#6fbfae" stroke-width="1.1"/><line x1="550.169" y1="135.173" x2="546.451" y2="137.551" stroke="#6fbfae" stroke-width="0.7"/><line x1="550.169" y1="135.173" x2="545.873" y2="134.163" stroke="#6fbfae" stroke-width="0.7"/><line x1="556.231" y1="134.261" x2="551.354" y2="130.548" stroke="#6fbfae" stroke-width="1.1"/><line x1="551.354" y1="130.548" x2="547.057" y2="129.538" stroke="#6fbfae" stroke-width="0.7"/><line x1="551.354" y1="130.548" x2="549.085" y2="126.762" stroke="#6fbfae" stroke-width="0.7"/><line x1="564.434" y1="136.539" x2="560.352" y2="129.067" stroke="#6fbfae" stroke-width="1.6500000000000001"/><line x1="560.352" y1="129.067" x2="555.476" y2="125.354" stroke="#6fbfae" stroke-width="1.1"/><line x1="555.476" y1="125.354" x2="551.179" y2="124.344" stroke="#6fbfae" stroke-width="0.7"/><line x1="555.476" y1="125.354" x2="553.206" y2="121.568" stroke="#6fbfae" stroke-width="0.7"/><line x1="560.352" y1="129.067" x2="559.619" y2="122.982" stroke="#6fbfae" stroke-width="1.1"/><line x1="559.619" y1="122.982" x2="557.35" y2="119.196" stroke="#6fbfae" stroke-width="0.7"/><line x1="559.619" y1="122.982" x2="560.753" y2="118.716" stroke="#6fbfae" stroke-width="0.7"/><line x1="573.548" y1="144.073" x2="572.603" y2="132.286" stroke="#6fbfae" stroke-width="2.2"/><line x1="572.603" y1="132.286" x2="568.521" y2="124.815" stroke="#6fbfae" stroke-width="1.6500000000000001"/><line x1="568.521" y1="124.815" x2="563.644" y2="121.101" stroke="#6fbfae" stroke-width="1.1"/><line x1="563.644" y1="121.101" x2="559.348" y2="120.091" stroke="#6fbfae" stroke-width="0.7"/><line x1="563.644" y1="121.101" x2="561.375" y2="117.316" stroke="#6fbfae" stroke-width="0.7"/><line x1="568.521" y1="124.815" x2="567.787" y2="118.729" stroke="#6fbfae" stroke-width="1.1"/><line x1="567.787" y1="118.729" x2="565.518" y2="114.943" stroke="#6fbfae" stroke-width="0.7"/><line x1="567.787" y1="118.729" x2="568.922" y2="114.464" stroke="#6fbfae" stroke-width="0.7"/><line x1="572.603" y1="132.286" x2="575.119" y2="124.153" stroke="#6fbfae" stroke-width="1.6500000000000001"/><line x1="575.119" y1="124.153" x2="574.385" y2="118.067" stroke="#6fbfae" stroke-width="1.1"/><line x1="574.385" y1="118.067" x2="572.116" y2="114.281" stroke="#6fbfae" stroke-width="0.7"/><line x1="574.385" y1="118.067" x2="575.52" y2="113.802" stroke="#6fbfae" stroke-width="0.7"/><line x1="575.119" y1="124.153" x2="578.973" y2="119.386" stroke="#6fbfae" stroke-width="1.1"/><line x1="578.973" y1="119.386" x2="580.108" y2="115.121" stroke="#6fbfae" stroke-width="0.7"/><line x1="578.973" y1="119.386" x2="582.823" y2="117.229" stroke="#6fbfae" stroke-width="0.7"/><line x1="580.839" y1="158.789" x2="586.315" y2="143.306" stroke="#6fbfae" stroke-width="2.75"/><line x1="586.315" y1="143.306" x2="585.37" y2="131.519" stroke="#6fbfae" stroke-width="2.2"/><line x1="585.37" y1="131.519" x2="581.289" y2="124.048" stroke="#6fbfae" stroke-width="1.6500000000000001"/><line x1="581.289" y1="124.048" x2="576.412" y2="120.334" stroke="#6fbfae" stroke-width="1.1"/><line x1="576.412" y1="120.334" x2="572.116" y2="119.325" stroke="#6fbfae" stroke-width="0.7"/><line x1="576.412" y1="120.334" x2="574.143" y2="116.549" stroke="#6fbfae" stroke-width="0.7"/><line x1="581.289" y1="124.048" x2="580.555" y2="117.962" stroke="#6fbfae" stroke-width="1.1"/><line x1="580.555" y1="117.962" x2="578.286" y2="114.176" stroke="#6fbfae" stroke-width="0.7"/><line x1="580.555" y1="117.962" x2="581.69" y2="113.697" stroke="#6fbfae" stroke-width="0.7"/><line x1="585.37" y1="131.519" x2="587.886" y2="123.386" stroke="#6fbfae" stroke-width="1.6500000000000001"/><line x1="587.886" y1="123.386" x2="587.153" y2="117.3" stroke="#6fbfae" stroke-width="1.1"/><line x1="587.153" y1="117.3" x2="584.884" y2="113.514" stroke="#6fbfae" stroke-width="0.7"/><line x1="587.153" y1="117.3" x2="588.287" y2="113.035" stroke="#6fbfae" stroke-width="0.7"/><line x1="587.886" y1="123.386" x2="591.741" y2="118.619" stroke="#6fbfae" stroke-width="1.1"/><line x1="591.741" y1="118.619" x2="592.875" y2="114.354" stroke="#6fbfae" stroke-width="0.7"/><line x1="591.741" y1="118.619" x2="595.591" y2="116.462" stroke="#6fbfae" stroke-width="0.7"/><line x1="586.315" y1="143.306" x2="594.112" y2="134.416" stroke="#6fbfae" stroke-width="2.2"/><line x1="594.112" y1="134.416" x2="596.628" y2="126.283" stroke="#6fbfae" stroke-width="1.6500000000000001"/><line x1="596.628" y1="126.283" x2="595.894" y2="120.197" stroke="#6fbfae" stroke-width="1.1"/><line x1="595.894" y1="120.197" x2="593.625" y2="116.411" stroke="#6fbfae" stroke-width="0.7"/><line x1="595.894" y1="120.197" x2="597.029" y2="115.932" stroke="#6fbfae" stroke-width="0.7"/><line x1="596.628" y1="126.283" x2="600.483" y2="121.516" stroke="#6fbfae" stroke-width="1.1"/><line x1="600.483" y1="121.516" x2="601.617" y2="117.251" stroke="#6fbfae" stroke-width="0.7"/><line x1="600.483" y1="121.516" x2="604.333" y2="119.359" stroke="#6fbfae" stroke-width="0.7"/><line x1="594.112" y1="134.416" x2="601.7" y2="130.554" stroke="#6fbfae" stroke-width="1.6500000000000001"/><line x1="601.7" y1="130.554" x2="605.554" y2="125.788" stroke="#6fbfae" stroke-width="1.1"/><line x1="605.554" y1="125.788" x2="606.689" y2="121.523" stroke="#6fbfae" stroke-width="0.7"/><line x1="605.554" y1="125.788" x2="609.404" y2="123.63" stroke="#6fbfae" stroke-width="0.7"/><line x1="601.7" y1="130.554" x2="607.804" y2="129.998" stroke="#6fbfae" stroke-width="1.1"/><line x1="607.804" y1="129.998" x2="611.654" y2="127.841" stroke="#6fbfae" stroke-width="0.7"/><line x1="607.804" y1="129.998" x2="612.035" y2="131.257" stroke="#6fbfae" stroke-width="0.7"/><line x1="581.751" y1="181.58" x2="597.465" y2="165.047" stroke="#6fbfae" stroke-width="3.3000000000000003"/><line x1="597.465" y1="165.047" x2="602.942" y2="149.564" stroke="#6fbfae" stroke-width="2.75"/><line x1="602.942" y1="149.564" x2="601.997" y2="137.777" stroke="#6fbfae" stroke-width="2.2"/><line x1="601.997" y1="137.777" x2="597.915" y2="130.306" stroke="#6fbfae" stroke-width="1.6500000000000001"/><line x1="597.915" y1="130.306" x2="593.038" y2="126.592" stroke="#6fbfae" stroke-width="1.1"/><line x1="593.038" y1="126.592" x2="588.742" y2="125.583" stroke="#6fbfae" stroke-width="0.7"/><line x1="593.038" y1="126.592" x2="590.769" y2="122.807" stroke="#6fbfae" stroke-width="0.7"/><line x1="597.915" y1="130.306" x2="597.181" y2="124.22" stroke="#6fbfae" stroke-width="1.1"/><line x1="597.181" y1="124.22" x2="594.912" y2="120.435" stroke="#6fbfae" stroke-width="0.7"/><line x1="597.181" y1="124.22" x2="598.316" y2="119.955" stroke="#6fbfae" stroke-width="0.7"/><line x1="601.997" y1="137.777" x2="604.513" y2="129.644" stroke="#6fbfae" stroke-width="1.6500000000000001"/><line x1="604.513" y1="129.644" x2="603.779" y2="123.558" stroke="#6fbfae" stroke-width="1.1"/><line x1="603.779" y1="123.558" x2="601.51" y2="119.773" stroke="#6fbfae" stroke-width="0.7"/><line x1="603.779" y1="123.558" x2="604.913" y2="119.293" stroke="#6fbfae" stroke-width="0.7"/><line x1="604.513" y1="129.644" x2="608.367" y2="124.877" stroke="#6fbfae" stroke-width="1.1"/><line x1="608.367" y1="124.877" x2="609.502" y2="120.612" stroke="#6fbfae" stroke-width="0.7"/><line x1="608.367" y1="124.877" x2="612.217" y2="122.72" stroke="#6fbfae" stroke-width="0.7"/><line x1="602.942" y1="149.564" x2="610.739" y2="140.674" stroke="#6fbfae" stroke-width="2.2"/><line x1="610.739" y1="140.674" x2="613.254" y2="132.541" stroke="#6fbfae" stroke-width="1.6500000000000001"/><line x1="613.254" y1="132.541" x2="612.521" y2="126.455" stroke="#6fbfae" stroke-width="1.1"/><line x1="612.521" y1="126.455" x2="610.252" y2="122.67" stroke="#6fbfae" stroke-width="0.7"/><line x1="612.521" y1="126.455" x2="613.655" y2="122.19" stroke="#6fbfae" stroke-width="0.7"/><line x1="613.254" y1="132.541" x2="617.109" y2="127.774" stroke="#6fbfae" stroke-width="1.1"/><line x1="617.109" y1="127.774" x2="618.243" y2="123.509" stroke="#6fbfae" stroke-width="0.7"/><line x1="617.109" y1="127.774" x2="620.959" y2="125.617" stroke="#6fbfae" stroke-width="0.7"/><line x1="610.739" y1="140.674" x2="618.326" y2="136.812" stroke="#6fbfae" stroke-width="1.6500000000000001"/><line x1="618.326" y1="136.812" x2="622.18" y2="132.046" stroke="#6fbfae" stroke-width="1.1"/><line x1="622.18" y1="132.046" x2="623.315" y2="127.781" stroke="#6fbfae" stroke-width="0.7"/><line x1="622.18" y1="132.046" x2="626.03" y2="129.888" stroke="#6fbfae" stroke-width="0.7"/><line x1="618.326" y1="136.812" x2="624.43" y2="136.257" stroke="#6fbfae" stroke-width="1.1"/><line x1="624.43" y1="136.257" x2="628.281" y2="134.099" stroke="#6fbfae" stroke-width="0.7"/><line x1="624.43" y1="136.257" x2="628.661" y2="137.515" stroke="#6fbfae" stroke-width="0.7"/><line x1="597.465" y1="165.047" x2="612.387" y2="158.189" stroke="#6fbfae" stroke-width="2.75"/><line x1="612.387" y1="158.189" x2="620.184" y2="149.299" stroke="#6fbfae" stroke-width="2.2"/><line x1="620.184" y1="149.299" x2="622.7" y2="141.165" stroke="#6fbfae" stroke-width="1.6500000000000001"/><line x1="622.7" y1="141.165" x2="621.966" y2="135.08" stroke="#6fbfae" stroke-width="1.1"/><line x1="621.966" y1="135.08" x2="619.697" y2="131.294" stroke="#6fbfae" stroke-width="0.7"/><line x1="621.966" y1="135.08" x2="623.101" y2="130.815" stroke="#6fbfae" stroke-width="0.7"/><line x1="622.7" y1="141.165" x2="626.554" y2="136.399" stroke="#6fbfae" stroke-width="1.1"/><line x1="626.554" y1="136.399" x2="627.689" y2="132.134" stroke="#6fbfae" stroke-width="0.7"/><line x1="626.554" y1="136.399" x2="630.405" y2="134.241" stroke="#6fbfae" stroke-width="0.7"/><line x1="620.184" y1="149.299" x2="627.771" y2="145.437" stroke="#6fbfae" stroke-width="1.6500000000000001"/><line x1="627.771" y1="145.437" x2="631.626" y2="140.671" stroke="#6fbfae" stroke-width="1.1"/><line x1="631.626" y1="140.671" x2="632.761" y2="136.406" stroke="#6fbfae" stroke-width="0.7"/><line x1="631.626" y1="140.671" x2="635.476" y2="138.513" stroke="#6fbfae" stroke-width="0.7"/><line x1="627.771" y1="145.437" x2="633.876" y2="144.881" stroke="#6fbfae" stroke-width="1.1"/><line x1="633.876" y1="144.881" x2="637.726" y2="142.724" stroke="#6fbfae" stroke-width="0.7"/><line x1="633.876" y1="144.881" x2="638.106" y2="146.14" stroke="#6fbfae" stroke-width="0.7"/><line x1="612.387" y1="158.189" x2="624.196" y2="157.588" stroke="#6fbfae" stroke-width="2.2"/><line x1="624.196" y1="157.588" x2="631.784" y2="153.726" stroke="#6fbfae" stroke-width="1.6500000000000001"/><line x1="631.784" y1="153.726" x2="635.638" y2="148.96" stroke="#6fbfae" stroke-width="1.1"/><line x1="635.638" y1="148.96" x2="636.773" y2="144.695" stroke="#6fbfae" stroke-width="0.7"/><line x1="635.638" y1="148.96" x2="639.488" y2="146.802" stroke="#6fbfae" stroke-width="0.7"/><line x1="631.784" y1="153.726" x2="637.888" y2="153.171" stroke="#6fbfae" stroke-width="1.1"/><line x1="637.888" y1="153.171" x2="641.739" y2="151.013" stroke="#6fbfae" stroke-width="0.7"/><line x1="637.888" y1="153.171" x2="642.119" y2="154.429" stroke="#6fbfae" stroke-width="0.7"/><line x1="624.196" y1="157.588" x2="632.253" y2="160.341" stroke="#6fbfae" stroke-width="1.6500000000000001"/><line x1="632.253" y1="160.341" x2="638.357" y2="159.785" stroke="#6fbfae" stroke-width="1.1"/><line x1="638.357" y1="159.785" x2="642.208" y2="157.627" stroke="#6fbfae" stroke-width="0.7"/><line x1="638.357" y1="159.785" x2="642.588" y2="161.043" stroke="#6fbfae" stroke-width="0.7"/><line x1="632.253" y1="160.341" x2="636.905" y2="164.332" stroke="#6fbfae" stroke-width="1.1"/><line x1="636.905" y1="164.332" x2="641.135" y2="165.591" stroke="#6fbfae" stroke-width="0.7"/><line x1="636.905" y1="164.332" x2="638.949" y2="168.244" stroke="#6fbfae" stroke-width="0.7"/><text x="570" y="282" font-size="12" fill="#6fbfae" text-anchor="middle" font-weight="600">8 層</text><text x="360" y="78" font-size="13" fill="#f2ece1" text-anchor="middle" font-weight="400">規則只有一句：每根枝條的末端長出兩根較短的枝條</text><text x="360" y="98" font-size="12" fill="#a89f92" text-anchor="middle" font-weight="400">改變分岔角度與縮短比例，就長出不同的樹種</text><defs><marker id="ar" markerWidth="9" markerHeight="9" refX="8" refY="4.5" orient="auto"><path d="M0,0 L9,4.5 L0,9 Z" fill="#e0a94e"/></marker></defs></svg>