<svg xmlns="http://www.w3.org/2000/svg" viewBox="0 0 720 320" width="720" height="320" font-family="-apple-system,'PingFang TC','Noto Sans CJK TC','Microsoft JhengHei',sans-serif" role="img"><rect width="720" height="320" rx="10" fill="#1d1811"/><text x="360" y="34" font-size="17" fill="#f0c87d" text-anchor="middle" font-weight="600">一千張抽象裡，出現一張像鵝的</text><line x1="91.1122" y1="98.973" x2="83.3249" y2="106.865" stroke="#3a3026" stroke-width="1.1" opacity="0.7"/><line x1="80.1544" y1="101.045" x2="101.559" y2="94.293" stroke="#3a3026" stroke-width="1.1" opacity="0.7"/><rect x="76" y="88" width="32" height="26" rx="3" fill="none" stroke="#3a3026" stroke-width="0.8"/><line x1="131.302" y1="102.866" x2="118.981" y2="99.0643" stroke="#3a3026" stroke-width="1.1" opacity="0.7"/><line x1="134.884" y1="100.232" x2="135.402" y2="95.5145" stroke="#3a3026" stroke-width="1.1" opacity="0.7"/><rect x="114" y="88" width="32" height="26" rx="3" fill="none" stroke="#3a3026" stroke-width="0.8"/><line x1="161.712" y1="94.7752" x2="168.15" y2="107.781" stroke="#3a3026" stroke-width="1.1" opacity="0.7"/><line x1="170.17" y1="105.387" x2="165.208" y2="104.938" stroke="#3a3026" stroke-width="1.1" opacity="0.7"/><rect x="152" y="88" width="32" height="26" rx="3" fill="none" stroke="#3a3026" stroke-width="0.8"/><line x1="196.44" y1="97.6588" x2="210.182" y2="104.611" stroke="#3a3026" stroke-width="1.1" opacity="0.7"/><line x1="204.122" y1="94.4034" x2="200.402" y2="96.3582" stroke="#3a3026" stroke-width="1.1" opacity="0.7"/><rect x="190" y="88" width="32" height="26" rx="3" fill="none" stroke="#3a3026" stroke-width="0.8"/><line x1="238.748" y1="105.952" x2="236.788" y2="107.182" stroke="#3a3026" stroke-width="1.1" opacity="0.7"/><line x1="253.105" y1="93.8766" x2="241.092" y2="100.867" stroke="#3a3026" stroke-width="1.1" opacity="0.7"/><rect x="228" y="88" width="32" height="26" rx="3" fill="none" stroke="#3a3026" stroke-width="0.8"/><line x1="270.564" y1="99.7956" x2="291.754" y2="94.7927" stroke="#3a3026" stroke-width="1.1" opacity="0.7"/><line x1="284.324" y1="94.9397" x2="283.889" y2="107.325" stroke="#3a3026" stroke-width="1.1" opacity="0.7"/><rect x="266" y="88" width="32" height="26" rx="3" fill="none" stroke="#3a3026" stroke-width="0.8"/><line x1="312.873" y1="93.132" x2="310.004" y2="101.636" stroke="#3a3026" stroke-width="1.1" opacity="0.7"/><line x1="308.419" y1="94.3574" x2="319.922" y2="107.735" stroke="#3a3026" stroke-width="1.1" opacity="0.7"/><rect x="304" y="88" width="32" height="26" rx="3" fill="none" stroke="#3a3026" stroke-width="0.8"/><line x1="356.083" y1="99.3702" x2="361.329" y2="94.4947" stroke="#3a3026" stroke-width="1.1" opacity="0.7"/><line x1="359.915" y1="95.7609" x2="360.613" y2="108.333" stroke="#3a3026" stroke-width="1.1" opacity="0.7"/><rect x="342" y="88" width="32" height="26" rx="3" fill="none" stroke="#3a3026" stroke-width="0.8"/><line x1="385.3" y1="101.881" x2="398.553" y2="95.3889" stroke="#3a3026" stroke-width="1.1" opacity="0.7"/><line x1="390.439" y1="108.918" x2="407.951" y2="94.9414" stroke="#3a3026" stroke-width="1.1" opacity="0.7"/><rect x="380" y="88" width="32" height="26" rx="3" fill="none" stroke="#3a3026" stroke-width="0.8"/><line x1="438.931" y1="108.215" x2="427.683" y2="102.778" stroke="#3a3026" stroke-width="1.1" opacity="0.7"/><line x1="423.033" y1="98.8551" x2="438.179" y2="102.444" stroke="#3a3026" stroke-width="1.1" opacity="0.7"/><rect x="418" y="88" width="32" height="26" rx="3" fill="none" stroke="#3a3026" stroke-width="0.8"/><line x1="478.591" y1="94.3878" x2="468.333" y2="106.825" stroke="#3a3026" stroke-width="1.1" opacity="0.7"/><line x1="474.019" y1="100.221" x2="469.652" y2="108.777" stroke="#3a3026" stroke-width="1.1" opacity="0.7"/><rect x="456" y="88" width="32" height="26" rx="3" fill="none" stroke="#3a3026" stroke-width="0.8"/><line x1="511.786" y1="93.2939" x2="517.185" y2="98.2594" stroke="#3a3026" stroke-width="1.1" opacity="0.7"/><line x1="508.406" y1="96.4148" x2="508.656" y2="98.1954" stroke="#3a3026" stroke-width="1.1" opacity="0.7"/><rect x="494" y="88" width="32" height="26" rx="3" fill="none" stroke="#3a3026" stroke-width="0.8"/><line x1="538.132" y1="103.072" x2="538.474" y2="105.546" stroke="#3a3026" stroke-width="1.1" opacity="0.7"/><line x1="536.609" y1="105.492" x2="555.381" y2="100.957" stroke="#3a3026" stroke-width="1.1" opacity="0.7"/><rect x="532" y="88" width="32" height="26" rx="3" fill="none" stroke="#3a3026" stroke-width="0.8"/><line x1="591.027" y1="96.9722" x2="591.703" y2="99.8001" stroke="#3a3026" stroke-width="1.1" opacity="0.7"/><line x1="579.543" y1="108.425" x2="583.622" y2="98.9675" stroke="#3a3026" stroke-width="1.1" opacity="0.7"/><rect x="570" y="88" width="32" height="26" rx="3" fill="none" stroke="#3a3026" stroke-width="0.8"/><line x1="632.638" y1="98.9098" x2="628.02" y2="95.737" stroke="#3a3026" stroke-width="1.1" opacity="0.7"/><line x1="632.239" y1="97.1426" x2="613.212" y2="108.604" stroke="#3a3026" stroke-width="1.1" opacity="0.7"/><rect x="608" y="88" width="32" height="26" rx="3" fill="none" stroke="#3a3026" stroke-width="0.8"/><line x1="654.146" y1="108.144" x2="673.668" y2="102.705" stroke="#3a3026" stroke-width="1.1" opacity="0.7"/><line x1="650.285" y1="93.9746" x2="655.006" y2="99.2221" stroke="#3a3026" stroke-width="1.1" opacity="0.7"/><rect x="646" y="88" width="32" height="26" rx="3" fill="none" stroke="#3a3026" stroke-width="0.8"/><line x1="94.6772" y1="140.463" x2="88.5087" y2="127.25" stroke="#3a3026" stroke-width="1.1" opacity="0.7"/><line x1="93.4864" y1="127.197" x2="82.0781" y2="133.895" stroke="#3a3026" stroke-width="1.1" opacity="0.7"/><rect x="76" y="120" width="32" height="26" rx="3" fill="none" stroke="#3a3026" stroke-width="0.8"/><line x1="134.704" y1="126.05" x2="128.834" y2="136.262" stroke="#3a3026" stroke-width="1.1" opacity="0.7"/><line x1="136.34" y1="131.128" x2="139.292" y2="127.705" stroke="#3a3026" stroke-width="1.1" opacity="0.7"/><rect x="114" y="120" width="32" height="26" rx="3" fill="none" stroke="#3a3026" stroke-width="0.8"/><line x1="173.171" y1="137.347" x2="177.126" y2="132.911" stroke="#3a3026" stroke-width="1.1" opacity="0.7"/><line x1="158.381" y1="125.775" x2="168.692" y2="127.773" stroke="#3a3026" stroke-width="1.1" opacity="0.7"/><rect x="152" y="120" width="32" height="26" rx="3" fill="none" stroke="#3a3026" stroke-width="0.8"/><line x1="209.112" y1="126.348" x2="212.724" y2="128.559" stroke="#3a3026" stroke-width="1.1" opacity="0.7"/><line x1="194.312" y1="127.814" x2="204.961" y2="133.948" stroke="#3a3026" stroke-width="1.1" opacity="0.7"/><rect x="190" y="120" width="32" height="26" rx="3" fill="none" stroke="#3a3026" stroke-width="0.8"/><line x1="241.319" y1="127.769" x2="243.569" y2="140.143" stroke="#3a3026" stroke-width="1.1" opacity="0.7"/><line x1="244.85" y1="140.061" x2="232.691" y2="140.89" stroke="#3a3026" stroke-width="1.1" opacity="0.7"/><rect x="228" y="120" width="32" height="26" rx="3" fill="none" stroke="#3a3026" stroke-width="0.8"/><line x1="291.336" y1="133.71" x2="282.564" y2="133.594" stroke="#3a3026" stroke-width="1.1" opacity="0.7"/><line x1="291.829" y1="126.049" x2="285.427" y2="133.674" stroke="#3a3026" stroke-width="1.1" opacity="0.7"/><rect x="266" y="120" width="32" height="26" rx="3" fill="none" stroke="#3a3026" stroke-width="0.8"/><line x1="315.208" y1="136.599" x2="325.296" y2="126.651" stroke="#3a3026" stroke-width="1.1" opacity="0.7"/><line x1="324.788" y1="132.257" x2="319.765" y2="135.188" stroke="#3a3026" stroke-width="1.1" opacity="0.7"/><rect x="304" y="120" width="32" height="26" rx="3" fill="none" stroke="#3a3026" stroke-width="0.8"/><line x1="347.271" y1="134.647" x2="354.955" y2="139.06" stroke="#3a3026" stroke-width="1.1" opacity="0.7"/><line x1="351.547" y1="138.17" x2="363.51" y2="135" stroke="#3a3026" stroke-width="1.1" opacity="0.7"/><rect x="342" y="120" width="32" height="26" rx="3" fill="none" stroke="#3a3026" stroke-width="0.8"/><line x1="405.02" y1="125.576" x2="398.327" y2="134.812" stroke="#3a3026" stroke-width="1.1" opacity="0.7"/><line x1="400.273" y1="131.507" x2="385.655" y2="128.025" stroke="#3a3026" stroke-width="1.1" opacity="0.7"/><rect x="380" y="120" width="32" height="26" rx="3" fill="none" stroke="#3a3026" stroke-width="0.8"/><line x1="436.595" y1="127.901" x2="423.557" y2="130.677" stroke="#3a3026" stroke-width="1.1" opacity="0.7"/><line x1="433.286" y1="133.569" x2="422.623" y2="137.409" stroke="#3a3026" stroke-width="1.1" opacity="0.7"/><rect x="418" y="120" width="32" height="26" rx="3" fill="none" stroke="#3a3026" stroke-width="0.8"/><line x1="468.012" y1="137.525" x2="460.206" y2="140.265" stroke="#3a3026" stroke-width="1.1" opacity="0.7"/><line x1="474.166" y1="140.622" x2="483.672" y2="138.325" stroke="#3a3026" stroke-width="1.1" opacity="0.7"/><rect x="456" y="120" width="32" height="26" rx="3" fill="none" stroke="#3a3026" stroke-width="0.8"/><line x1="500.55" y1="130.58" x2="503.552" y2="137.48" stroke="#3a3026" stroke-width="1.1" opacity="0.7"/><line x1="502.612" y1="128.538" x2="500.655" y2="126.921" stroke="#3a3026" stroke-width="1.1" opacity="0.7"/><rect x="494" y="120" width="32" height="26" rx="3" fill="none" stroke="#3a3026" stroke-width="0.8"/><line x1="558.515" y1="140.619" x2="544.938" y2="136.857" stroke="#3a3026" stroke-width="1.1" opacity="0.7"/><line x1="547.22" y1="133.352" x2="544.868" y2="135.155" stroke="#3a3026" stroke-width="1.1" opacity="0.7"/><rect x="532" y="120" width="32" height="26" rx="3" fill="none" stroke="#3a3026" stroke-width="0.8"/><line x1="579.668" y1="129.102" x2="586.428" y2="128.158" stroke="#3a3026" stroke-width="1.1" opacity="0.7"/><line x1="584.542" y1="140.102" x2="574.534" y2="126.652" stroke="#3a3026" stroke-width="1.1" opacity="0.7"/><rect x="570" y="120" width="32" height="26" rx="3" fill="none" stroke="#3a3026" stroke-width="0.8"/><line x1="631.199" y1="125.925" x2="618.03" y2="138.626" stroke="#3a3026" stroke-width="1.1" opacity="0.7"/><line x1="626.526" y1="128.531" x2="613.407" y2="129.403" stroke="#3a3026" stroke-width="1.1" opacity="0.7"/><rect x="608" y="120" width="32" height="26" rx="3" fill="none" stroke="#3a3026" stroke-width="0.8"/><line x1="657.204" y1="137.804" x2="673.413" y2="137.581" stroke="#3a3026" stroke-width="1.1" opacity="0.7"/><line x1="671.642" y1="139.891" x2="671.038" y2="139.72" stroke="#3a3026" stroke-width="1.1" opacity="0.7"/><rect x="646" y="120" width="32" height="26" rx="3" fill="none" stroke="#3a3026" stroke-width="0.8"/><line x1="103.221" y1="158.511" x2="87.6243" y2="160.955" stroke="#3a3026" stroke-width="1.1" opacity="0.7"/><line x1="94.5001" y1="164.867" x2="88.3266" y2="170.394" stroke="#3a3026" stroke-width="1.1" opacity="0.7"/><rect x="76" y="152" width="32" height="26" rx="3" fill="none" stroke="#3a3026" stroke-width="0.8"/><line x1="127.578" y1="160.343" x2="124.633" y2="164.388" stroke="#3a3026" stroke-width="1.1" opacity="0.7"/><line x1="132.651" y1="166.095" x2="128.558" y2="159.981" stroke="#3a3026" stroke-width="1.1" opacity="0.7"/><rect x="114" y="152" width="32" height="26" rx="3" fill="none" stroke="#3a3026" stroke-width="0.8"/><line x1="165.652" y1="162.2" x2="160.094" y2="165.702" stroke="#3a3026" stroke-width="1.1" opacity="0.7"/><line x1="160.525" y1="168.386" x2="171.81" y2="159.203" stroke="#3a3026" stroke-width="1.1" opacity="0.7"/><rect x="152" y="152" width="32" height="26" rx="3" fill="none" stroke="#3a3026" stroke-width="0.8"/><line x1="209.009" y1="162.406" x2="204.73" y2="166.705" stroke="#3a3026" stroke-width="1.1" opacity="0.7"/><line x1="212.278" y1="171.137" x2="211.605" y2="160.38" stroke="#3a3026" stroke-width="1.1" opacity="0.7"/><rect x="190" y="152" width="32" height="26" rx="3" fill="none" stroke="#3a3026" stroke-width="0.8"/><line x1="245.007" y1="162.366" x2="232.459" y2="165.839" stroke="#3a3026" stroke-width="1.1" opacity="0.7"/><line x1="243.294" y1="170.871" x2="239.769" y2="170.337" stroke="#3a3026" stroke-width="1.1" opacity="0.7"/><rect x="228" y="152" width="32" height="26" rx="3" fill="none" stroke="#3a3026" stroke-width="0.8"/><line x1="282.339" y1="158.586" x2="287.206" y2="161.555" stroke="#3a3026" stroke-width="1.1" opacity="0.7"/><line x1="282.804" y1="158.143" x2="270.259" y2="171.736" stroke="#3a3026" stroke-width="1.1" opacity="0.7"/><rect x="266" y="152" width="32" height="26" rx="3" fill="none" stroke="#3a3026" stroke-width="0.8"/><rect x="304" y="152" width="32" height="26" rx="3" fill="#f0c87d" stroke="#f0c87d" stroke-width="0" opacity="0.9"/><line x1="347.008" y1="159.386" x2="349.919" y2="158.537" stroke="#3a3026" stroke-width="1.1" opacity="0.7"/><line x1="365.778" y1="172.924" x2="361.58" y2="163.327" stroke="#3a3026" stroke-width="1.1" opacity="0.7"/><rect x="342" y="152" width="32" height="26" rx="3" fill="none" stroke="#3a3026" stroke-width="0.8"/><line x1="405.322" y1="165.099" x2="387.236" y2="168.043" stroke="#3a3026" stroke-width="1.1" opacity="0.7"/><line x1="392.616" y1="161.319" x2="391.691" y2="163.161" stroke="#3a3026" stroke-width="1.1" opacity="0.7"/><rect x="380" y="152" width="32" height="26" rx="3" fill="none" stroke="#3a3026" stroke-width="0.8"/><line x1="426.378" y1="166.8" x2="442.842" y2="166.132" stroke="#3a3026" stroke-width="1.1" opacity="0.7"/><line x1="422.227" y1="167.947" x2="422.483" y2="164.661" stroke="#3a3026" stroke-width="1.1" opacity="0.7"/><rect x="418" y="152" width="32" height="26" rx="3" fill="none" stroke="#3a3026" stroke-width="0.8"/><line x1="480.778" y1="167.834" x2="481.797" y2="169.074" stroke="#3a3026" stroke-width="1.1" opacity="0.7"/><line x1="466.547" y1="159.299" x2="470.835" y2="167.877" stroke="#3a3026" stroke-width="1.1" opacity="0.7"/><rect x="456" y="152" width="32" height="26" rx="3" fill="none" stroke="#3a3026" stroke-width="0.8"/><line x1="503.569" y1="162.297" x2="515.955" y2="162.562" stroke="#3a3026" stroke-width="1.1" opacity="0.7"/><line x1="512.421" y1="165.727" x2="520.293" y2="157.42" stroke="#3a3026" stroke-width="1.1" opacity="0.7"/><rect x="494" y="152" width="32" height="26" rx="3" fill="none" stroke="#3a3026" stroke-width="0.8"/><line x1="540.474" y1="169.457" x2="552.058" y2="158.545" stroke="#3a3026" stroke-width="1.1" opacity="0.7"/><line x1="539.229" y1="160.373" x2="549.035" y2="171.438" stroke="#3a3026" stroke-width="1.1" opacity="0.7"/><rect x="532" y="152" width="32" height="26" rx="3" fill="none" stroke="#3a3026" stroke-width="0.8"/><line x1="579.198" y1="160.245" x2="590.459" y2="163.77" stroke="#3a3026" stroke-width="1.1" opacity="0.7"/><line x1="594.32" y1="172.984" x2="596.468" y2="168.451" stroke="#3a3026" stroke-width="1.1" opacity="0.7"/><rect x="570" y="152" width="32" height="26" rx="3" fill="none" stroke="#3a3026" stroke-width="0.8"/><line x1="623.909" y1="157.974" x2="631.395" y2="163.377" stroke="#3a3026" stroke-width="1.1" opacity="0.7"/><line x1="623.126" y1="167.114" x2="635.138" y2="165.896" stroke="#3a3026" stroke-width="1.1" opacity="0.7"/><rect x="608" y="152" width="32" height="26" rx="3" fill="none" stroke="#3a3026" stroke-width="0.8"/><line x1="672.029" y1="172.426" x2="652.037" y2="162.674" stroke="#3a3026" stroke-width="1.1" opacity="0.7"/><line x1="671.325" y1="169.279" x2="673.259" y2="159.981" stroke="#3a3026" stroke-width="1.1" opacity="0.7"/><rect x="646" y="152" width="32" height="26" rx="3" fill="none" stroke="#3a3026" stroke-width="0.8"/><line x1="92.7479" y1="203.926" x2="92.9557" y2="199.726" stroke="#3a3026" stroke-width="1.1" opacity="0.7"/><line x1="103.398" y1="191.773" x2="81.3558" y2="202.662" stroke="#3a3026" stroke-width="1.1" opacity="0.7"/><rect x="76" y="184" width="32" height="26" rx="3" fill="none" stroke="#3a3026" stroke-width="0.8"/><line x1="131.946" y1="192.206" x2="137.975" y2="193.536" stroke="#3a3026" stroke-width="1.1" opacity="0.7"/><line x1="121.114" y1="193.762" x2="118.865" y2="195.493" stroke="#3a3026" stroke-width="1.1" opacity="0.7"/><rect x="114" y="184" width="32" height="26" rx="3" fill="none" stroke="#3a3026" stroke-width="0.8"/><line x1="174.71" y1="196.265" x2="179.15" y2="189.671" stroke="#3a3026" stroke-width="1.1" opacity="0.7"/><line x1="160.154" y1="191.301" x2="169.787" y2="192.195" stroke="#3a3026" stroke-width="1.1" opacity="0.7"/><rect x="152" y="184" width="32" height="26" rx="3" fill="none" stroke="#3a3026" stroke-width="0.8"/><line x1="210.014" y1="197.371" x2="207.94" y2="202.52" stroke="#3a3026" stroke-width="1.1" opacity="0.7"/><line x1="212.957" y1="203.757" x2="197.65" y2="195.068" stroke="#3a3026" stroke-width="1.1" opacity="0.7"/><rect x="190" y="184" width="32" height="26" rx="3" fill="none" stroke="#3a3026" stroke-width="0.8"/><line x1="255.05" y1="195.349" x2="238.853" y2="196.709" stroke="#3a3026" stroke-width="1.1" opacity="0.7"/><line x1="236.341" y1="202.573" x2="247.265" y2="190.513" stroke="#3a3026" stroke-width="1.1" opacity="0.7"/><rect x="228" y="184" width="32" height="26" rx="3" fill="none" stroke="#3a3026" stroke-width="0.8"/><line x1="293.143" y1="197.327" x2="276.089" y2="198.803" stroke="#3a3026" stroke-width="1.1" opacity="0.7"/><line x1="292.79" y1="194.55" x2="270.335" y2="192.163" stroke="#3a3026" stroke-width="1.1" opacity="0.7"/><rect x="266" y="184" width="32" height="26" rx="3" fill="none" stroke="#3a3026" stroke-width="0.8"/><line x1="309.408" y1="197.458" x2="315.476" y2="202.625" stroke="#3a3026" stroke-width="1.1" opacity="0.7"/><line x1="312.949" y1="189.241" x2="319.152" y2="190.974" stroke="#3a3026" stroke-width="1.1" opacity="0.7"/><rect x="304" y="184" width="32" height="26" rx="3" fill="none" stroke="#3a3026" stroke-width="0.8"/><line x1="353.45" y1="192.608" x2="350.276" y2="199.179" stroke="#3a3026" stroke-width="1.1" opacity="0.7"/><line x1="368.469" y1="194.922" x2="361.326" y2="194.17" stroke="#3a3026" stroke-width="1.1" opacity="0.7"/><rect x="342" y="184" width="32" height="26" rx="3" fill="none" stroke="#3a3026" stroke-width="0.8"/><line x1="405.961" y1="197.846" x2="384.703" y2="200.869" stroke="#3a3026" stroke-width="1.1" opacity="0.7"/><line x1="389.037" y1="189.75" x2="384.465" y2="202.444" stroke="#3a3026" stroke-width="1.1" opacity="0.7"/><rect x="380" y="184" width="32" height="26" rx="3" fill="none" stroke="#3a3026" stroke-width="0.8"/><line x1="439.036" y1="194.729" x2="435.383" y2="200.287" stroke="#3a3026" stroke-width="1.1" opacity="0.7"/><line x1="423.812" y1="200.293" x2="439.01" y2="204.077" stroke="#3a3026" stroke-width="1.1" opacity="0.7"/><rect x="418" y="184" width="32" height="26" rx="3" fill="none" stroke="#3a3026" stroke-width="0.8"/><line x1="461.419" y1="198.159" x2="472.197" y2="202.538" stroke="#3a3026" stroke-width="1.1" opacity="0.7"/><line x1="468.738" y1="199.599" x2="481.529" y2="194.58" stroke="#3a3026" stroke-width="1.1" opacity="0.7"/><rect x="456" y="184" width="32" height="26" rx="3" fill="none" stroke="#3a3026" stroke-width="0.8"/><line x1="510.37" y1="203.297" x2="498.819" y2="204.585" stroke="#3a3026" stroke-width="1.1" opacity="0.7"/><line x1="505.512" y1="196.317" x2="504.904" y2="201.763" stroke="#3a3026" stroke-width="1.1" opacity="0.7"/><rect x="494" y="184" width="32" height="26" rx="3" fill="none" stroke="#3a3026" stroke-width="0.8"/><line x1="548.784" y1="200.964" x2="538.492" y2="203.086" stroke="#3a3026" stroke-width="1.1" opacity="0.7"/><line x1="555.7" y1="199.885" x2="541.347" y2="193.154" stroke="#3a3026" stroke-width="1.1" opacity="0.7"/><rect x="532" y="184" width="32" height="26" rx="3" fill="none" stroke="#3a3026" stroke-width="0.8"/><line x1="584.849" y1="190.042" x2="596.886" y2="195.525" stroke="#3a3026" stroke-width="1.1" opacity="0.7"/><line x1="596.881" y1="191.927" x2="589.553" y2="201.78" stroke="#3a3026" stroke-width="1.1" opacity="0.7"/><rect x="570" y="184" width="32" height="26" rx="3" fill="none" stroke="#3a3026" stroke-width="0.8"/><line x1="627.468" y1="195.77" x2="612.459" y2="195.968" stroke="#3a3026" stroke-width="1.1" opacity="0.7"/><line x1="621.363" y1="204.12" x2="635.366" y2="204.31" stroke="#3a3026" stroke-width="1.1" opacity="0.7"/><rect x="608" y="184" width="32" height="26" rx="3" fill="none" stroke="#3a3026" stroke-width="0.8"/><line x1="673.524" y1="191.702" x2="650.712" y2="193.673" stroke="#3a3026" stroke-width="1.1" opacity="0.7"/><line x1="650.19" y1="190.901" x2="663.852" y2="192.215" stroke="#3a3026" stroke-width="1.1" opacity="0.7"/><rect x="646" y="184" width="32" height="26" rx="3" fill="none" stroke="#3a3026" stroke-width="0.8"/><line x1="94.6577" y1="227.09" x2="86.5778" y2="236.509" stroke="#3a3026" stroke-width="1.1" opacity="0.7"/><line x1="84.4704" y1="235.118" x2="92.6439" y2="231.607" stroke="#3a3026" stroke-width="1.1" opacity="0.7"/><rect x="76" y="216" width="32" height="26" rx="3" fill="none" stroke="#3a3026" stroke-width="0.8"/><line x1="121.456" y1="232.919" x2="139.35" y2="224.17" stroke="#3a3026" stroke-width="1.1" opacity="0.7"/><line x1="129.347" y1="231.453" x2="129.393" y2="233.032" stroke="#3a3026" stroke-width="1.1" opacity="0.7"/><rect x="114" y="216" width="32" height="26" rx="3" fill="none" stroke="#3a3026" stroke-width="0.8"/><line x1="171.463" y1="226.024" x2="172.346" y2="233.369" stroke="#3a3026" stroke-width="1.1" opacity="0.7"/><line x1="167.122" y1="230.446" x2="171.231" y2="228.63" stroke="#3a3026" stroke-width="1.1" opacity="0.7"/><rect x="152" y="216" width="32" height="26" rx="3" fill="none" stroke="#3a3026" stroke-width="0.8"/><line x1="196.132" y1="227.523" x2="212.672" y2="232.583" stroke="#3a3026" stroke-width="1.1" opacity="0.7"/><line x1="195.781" y1="228.649" x2="208.105" y2="229.527" stroke="#3a3026" stroke-width="1.1" opacity="0.7"/><rect x="190" y="216" width="32" height="26" rx="3" fill="none" stroke="#3a3026" stroke-width="0.8"/><line x1="235.595" y1="231.347" x2="248.736" y2="229.571" stroke="#3a3026" stroke-width="1.1" opacity="0.7"/><line x1="254.551" y1="230.242" x2="232.295" y2="225.558" stroke="#3a3026" stroke-width="1.1" opacity="0.7"/><rect x="228" y="216" width="32" height="26" rx="3" fill="none" stroke="#3a3026" stroke-width="0.8"/><line x1="286.849" y1="222.277" x2="293.16" y2="232.185" stroke="#3a3026" stroke-width="1.1" opacity="0.7"/><line x1="288.36" y1="223.719" x2="270.163" y2="234.969" stroke="#3a3026" stroke-width="1.1" opacity="0.7"/><rect x="266" y="216" width="32" height="26" rx="3" fill="none" stroke="#3a3026" stroke-width="0.8"/><line x1="320.264" y1="228.073" x2="320.44" y2="233.291" stroke="#3a3026" stroke-width="1.1" opacity="0.7"/><line x1="316.94" y1="233.364" x2="311.886" y2="236.685" stroke="#3a3026" stroke-width="1.1" opacity="0.7"/><rect x="304" y="216" width="32" height="26" rx="3" fill="none" stroke="#3a3026" stroke-width="0.8"/><line x1="362.701" y1="226.097" x2="357.45" y2="235.102" stroke="#3a3026" stroke-width="1.1" opacity="0.7"/><line x1="353.814" y1="232.185" x2="367.822" y2="236.37" stroke="#3a3026" stroke-width="1.1" opacity="0.7"/><rect x="342" y="216" width="32" height="26" rx="3" fill="none" stroke="#3a3026" stroke-width="0.8"/><line x1="390.138" y1="233.716" x2="398.608" y2="233.937" stroke="#3a3026" stroke-width="1.1" opacity="0.7"/><line x1="385.668" y1="227.608" x2="394.838" y2="234.033" stroke="#3a3026" stroke-width="1.1" opacity="0.7"/><rect x="380" y="216" width="32" height="26" rx="3" fill="none" stroke="#3a3026" stroke-width="0.8"/><line x1="432.849" y1="221.672" x2="427.021" y2="234.305" stroke="#3a3026" stroke-width="1.1" opacity="0.7"/><line x1="443.189" y1="230.181" x2="423.915" y2="233.37" stroke="#3a3026" stroke-width="1.1" opacity="0.7"/><rect x="418" y="216" width="32" height="26" rx="3" fill="none" stroke="#3a3026" stroke-width="0.8"/><line x1="480.789" y1="225.595" x2="471.565" y2="225.651" stroke="#3a3026" stroke-width="1.1" opacity="0.7"/><line x1="461.283" y1="232.742" x2="463.815" y2="222.393" stroke="#3a3026" stroke-width="1.1" opacity="0.7"/><rect x="456" y="216" width="32" height="26" rx="3" fill="none" stroke="#3a3026" stroke-width="0.8"/><line x1="519.825" y1="222.542" x2="516.233" y2="234.041" stroke="#3a3026" stroke-width="1.1" opacity="0.7"/><line x1="504.019" y1="226.955" x2="503.351" y2="232.329" stroke="#3a3026" stroke-width="1.1" opacity="0.7"/><rect x="494" y="216" width="32" height="26" rx="3" fill="none" stroke="#3a3026" stroke-width="0.8"/><line x1="559.366" y1="232.904" x2="547.833" y2="229.598" stroke="#3a3026" stroke-width="1.1" opacity="0.7"/><line x1="545.792" y1="232.43" x2="542.465" y2="224.926" stroke="#3a3026" stroke-width="1.1" opacity="0.7"/><rect x="532" y="216" width="32" height="26" rx="3" fill="none" stroke="#3a3026" stroke-width="0.8"/><line x1="590.712" y1="225.079" x2="597.72" y2="232.635" stroke="#3a3026" stroke-width="1.1" opacity="0.7"/><line x1="578.414" y1="221.341" x2="588.355" y2="223.144" stroke="#3a3026" stroke-width="1.1" opacity="0.7"/><rect x="570" y="216" width="32" height="26" rx="3" fill="none" stroke="#3a3026" stroke-width="0.8"/><line x1="623.999" y1="230.603" x2="631.404" y2="227.209" stroke="#3a3026" stroke-width="1.1" opacity="0.7"/><line x1="625.105" y1="234.032" x2="615.232" y2="226.375" stroke="#3a3026" stroke-width="1.1" opacity="0.7"/><rect x="608" y="216" width="32" height="26" rx="3" fill="none" stroke="#3a3026" stroke-width="0.8"/><line x1="669.409" y1="226.73" x2="672.329" y2="222.344" stroke="#3a3026" stroke-width="1.1" opacity="0.7"/><line x1="652.039" y1="226.811" x2="661.138" y2="226.881" stroke="#3a3026" stroke-width="1.1" opacity="0.7"/><rect x="646" y="216" width="32" height="26" rx="3" fill="none" stroke="#3a3026" stroke-width="0.8"/><circle cx="320" cy="165" r="27" fill="none" stroke="#f0c87d" stroke-width="2"/><text x="360" y="282" font-size="12.5" fill="#f2ece1" text-anchor="middle" font-weight="400">演算法通常不會長出可辨認的東西，所以生成藝術大多是抽象的</text><text x="360" y="308" font-size="12.5" fill="#f0c87d" text-anchor="middle" font-weight="400">收藏家買的是「這條規則竟然能生出這個」的那份意外</text><defs><marker id="ar" markerWidth="9" markerHeight="9" refX="8" refY="4.5" orient="auto"><path d="M0,0 L9,4.5 L0,9 Z" fill="#e0a94e"/></marker></defs></svg>